# xmcd
#
# Track frame offsets:
#	150
#	17723
#	28776
#	42701
#	59520
#	70575
#	84127
#	94772
#	106643
#	119439
#	130822
#	152552
#	168806
#	179988
#	191838
#	209265
#	224282
#	239655
#	257099
#
# Disc length: 3619 seconds
#
# Revision: 1
# Processed by: cddbd v1.5.2PL0 Copyright (c) Steve Scherf et al.
# Submitted via: audiograbber 1.83.01
#
DISCID=0f0e2113
DTITLE=American Line Dance Company - LINE and SQUAREDANCE CD1
DYEAR=2009
DGENRE=Country
TTITLE0=I Wanna Watch You Dance All Night
TTITLE1=When You Go Dancin´...Better Watch Your Step
TTITLE2=He Ain´t Mr. Right
TTITLE3=Joanna?
TTITLE4=Turnin´Up The Heat
TTITLE5=Toe Tappin´Country Man
TTITLE6=Rock The Boat
TTITLE7=I Don´t Live In Paradise
TTITLE8=What´s Your Name
TTITLE9=Goodbye Hit Me Right In The Heart
TTITLE10=Double Bogey Blues
TTITLE11=You Should Have Thought About Her
TTITLE12=Don´t Call Me
TTITLE13=You Ring My Bell
TTITLE14=Black Coffee
TTITLE15=Boot Scootin Boogie
TTITLE16=Achy Breaky Heart
TTITLE17=Macarena
TTITLE18=Cotton Eye Joe
EXTD=
EXTT0=
EXTT1=
EXTT2=
EXTT3=
EXTT4=
EXTT5=
EXTT6=
EXTT7=
EXTT8=
EXTT9=
EXTT10=
EXTT11=
EXTT12=
EXTT13=
EXTT14=
EXTT15=
EXTT16=
EXTT17=
EXTT18=
PLAYORDER=
